<?xml version="1.0" encoding="UTF-8"?>
<svg id="Layer_3" data-name="Layer 3" xmlns="http://www.w3.org/2000/svg" xmlns:xlink="http://www.w3.org/1999/xlink" viewBox="0 0 330 330">
  <defs>
    <style>
      .cls-1 {
        fill: url(#linear-gradient);
      }

      .cls-2, .cls-3 {
        fill: #ba2025;
      }

      .cls-2, .cls-4 {
        fill-rule: evenodd;
      }

      .cls-5 {
        fill: #fff;
      }

      .cls-4 {
        fill: none;
        stroke: #ba2025;
        stroke-miterlimit: 10;
        stroke-width: 5px;
      }
    </style>
    <linearGradient id="linear-gradient" x1="165" y1="255.927" x2="165" y2="34.272" gradientUnits="userSpaceOnUse">
      <stop offset="0" stop-color="#d32e27"/>
      <stop offset=".465" stop-color="#f37122"/>
    </linearGradient>
  </defs>
  <g id="ISIS_Orb" data-name="ISIS Orb">
    <circle class="cls-1" cx="165" cy="145.099" r="110.827"/>
  </g>
  <g id="ISIS_Text_Urbane_Rounded_" data-name="ISIS Text (Urbane Rounded)">
    <path class="cls-5" d="M99.625,205.414v-36.258c0-1.859,1.046-2.905,2.905-2.905h.93c1.859,0,2.905,1.046,2.905,2.905v36.258c0,1.859-1.046,2.905-2.905,2.905h-.93c-1.859,0-2.905-1.046-2.905-2.905Z"/>
    <path class="cls-5" d="M141.698,208.9c-7.391,0-13.775-3.591-16.681-8.425-.975-1.619-.459-2.607,1.568-3.427l.633-.256c1.528-.615,2.215-.168,3.939,1.686,2.671,2.87,6.228,4.555,10.487,4.555,5.606,0,8.878-2.335,8.878-6.333,0-9.878-24.462-3.021-24.462-19.232,0-6.961,5.902-11.854,14.305-11.854,6.246,0,12.493,3.057,15.021,7.35.976,1.662.5,2.807-1.395,3.369l-.976.291c-1.476.436-2.153-.07-3.846-1.627-2.446-2.248-4.892-3.398-8.471-3.398-5.049,0-8.129,2.226-8.129,5.868,0,10.401,24.579,2.789,24.579,19.233,0,7.315-6.188,12.201-15.45,12.201h-.002Z"/>
    <path class="cls-5" d="M174.876,205.414v-36.258c0-1.859,1.046-2.905,2.905-2.905h.93c1.859,0,2.905,1.046,2.905,2.905v36.258c0,1.859-1.046,2.905-2.905,2.905h-.93c-1.859,0-2.905-1.046-2.905-2.905Z"/>
    <path class="cls-5" d="M216.949,208.9c-7.391,0-13.775-3.591-16.681-8.425-.975-1.619-.459-2.607,1.568-3.427l.633-.256c1.528-.615,2.215-.168,3.939,1.686,2.672,2.87,6.229,4.555,10.487,4.555,5.607,0,8.879-2.335,8.879-6.333,0-9.878-24.463-3.021-24.463-19.232,0-6.961,5.903-11.854,14.305-11.854,6.247,0,12.493,3.057,15.021,7.35.977,1.662.5,2.807-1.394,3.369l-.977.291c-1.476.436-2.152-.07-3.846-1.627-2.446-2.248-4.892-3.398-8.471-3.398-5.049,0-8.129,2.226-8.129,5.868,0,10.401,24.579,2.789,24.579,19.233,0,7.315-6.188,12.201-15.45,12.201h-.002Z"/>
  </g>
  <g id="Horns">
    <path class="cls-2" d="M55.554,13.25c1.9.5,2.9,1.7,10.2,12.5,11,16.4,10.4,28.4-2.2,47.5-8.9,13.4-13.2,21.5-16.3,31-15.2,46.4-5.5,93,26.7,128.3,11.2,12.3,20.8,19.2,48.5,35.3,18.9,11,22.1,14.9,22.2,26.6,0,6.3-1,8.3-4.4,8.9-3.9.7-5.7-1.8-6-8.2-.3-8-1.4-9.2-15.9-17.6-16.6-9.6-26.3-15.7-33-20.7-42.7-31.8-63.4-85.1-53-136.4,4.4-21.6,9.7-34.1,22.9-53.5,10.7-15.8,10.6-22.4-.7-39.1-5.1-7.5-5.4-8.1-5.2-10.4.2-2.8,3.2-4.8,6.2-4.1"/>
    <path class="cls-2" d="M274.446,13.25c-1.9.5-2.9,1.7-10.2,12.5-11,16.4-10.4,28.4,2.2,47.5,8.9,13.4,13.2,21.5,16.3,31,15.2,46.4,5.5,93-26.7,128.3-11.2,12.3-20.8,19.2-48.5,35.3-18.9,11-22.1,14.9-22.2,26.6,0,6.3,1,8.3,4.4,8.9,3.9.7,5.7-1.8,6-8.2.3-8,1.4-9.2,15.9-17.6,16.6-9.6,26.3-15.7,33-20.7,42.7-31.8,63.4-85.1,53-136.4-4.4-21.6-9.7-34.1-22.9-53.5-10.7-15.8-10.6-22.4.7-39.1,5.1-7.5,5.4-8.1,5.2-10.4-.2-2.8-3.2-4.8-6.2-4.1"/>
  </g>
  <g id="Spacecraft">
    <rect id="Arm" class="cls-3" x="131.777" y="67.25" width="84.732" height="13.082" transform="translate(14.459 175.142) rotate(-55.368)"/>
    <rect id="Body" class="cls-3" x="159.983" y="48.699" width="29.381" height="50.919" rx="12" ry="12" transform="translate(14.387 175.738) rotate(-55.368)"/>
    <rect id="R_Wing" data-name="R Wing" class="cls-3" x="182.592" y="15.364" width="31.324" height="47.182" rx="12" ry="12" transform="translate(339.241 183.678) rotate(-145.368)"/>
    <rect id="L_Wing" data-name="L Wing" class="cls-3" x="134.438" y="85.083" width="31.324" height="47.182" rx="12" ry="12" transform="translate(211.844 283.396) rotate(-145.368)"/>
  </g>
  <polygon id="Sq_Footprint" data-name="Sq Footprint" class="cls-4" points="250.944 130.897 212.601 140.621 200.376 105.613 238.997 93.11 250.944 130.897"/>
</svg>